<svg xmlns="http://www.w3.org/2000/svg"
  xmlns:xlink="http://www.w3.org/1999/xlink" width="100" height="100" viewBox="0 0 100 100">
  <g transform="translate(50 50) scale(0.69 -0.69) rotate(-180) translate(-50 -50)" style="fill:#fb2037">
    <svg fill="#fb2037"
      xmlns="http://www.w3.org/2000/svg"
      xmlns:xlink="http://www.w3.org/1999/xlink" version="1.1" x="0px" y="0px" viewBox="0 0 100 100" enable-background="new 0 0 100 100" xml:space="preserve">
      <g>
        <path d="M86.969,53.738c0.084-0.355-0.155-0.813-0.567-0.771c-3.227,0.329-7.244,1.432-10.314,3.198   c0.447-4.494-1.021-9.525-2.551-13.554c-2.02-5.321-4.979-10.238-8.428-14.75C58.293,18.945,49.125,10.293,39.05,5.165   c-1.502-0.764-2.711,1.315-1.316,2.252c4.61,3.098,9.215,5.989,13.441,9.633c4.12,3.552,7.948,7.474,11.338,11.731   c3.371,4.233,6.298,8.847,8.413,13.838c1.027,2.424,1.823,4.922,2.403,7.49c0.535,2.371,0.651,4.797,1.081,7.172   c-0.075,0.057-0.153,0.112-0.226,0.171c-0.741,0.596,0.062,1.804,0.903,1.552c1.92-0.576,3.691-1.674,5.531-2.473   c1.676-0.727,3.405-1.327,5.09-2.029c-4.75,11.178-8.311,22.979-12.319,34.434c-0.221,0.631-0.436,1.263-0.662,1.892   c-0.142,0.461-0.308,0.912-0.499,1.354c-0.047,0.493-0.236,0.547-0.569,0.162c-1.019-0.06-2.691-1.674-3.584-2.249   c-2.504-1.612-4.969-3.284-7.393-5.014c-4.784-3.414-9.379-7.075-13.819-10.925c2.47-1.935,5.179-3.485,8.115-4.64   c0.524-0.206,0.771-0.652,0.804-1.104c0.029-0.072,0.045-0.155,0.045-0.248c0.003-4.306-3.264-7.612-5.973-10.605   c-3.562-3.936-7.21-7.811-11.084-11.443c-3.61-3.385-7.418-6.582-11.524-9.35c-3.762-2.536-8.761-6.055-13.366-6.545   c-1.225-0.13-1.358,1.517-0.566,2.09c1.927,1.395,4.42,2.073,6.539,3.186c2.074,1.089,4.08,2.304,6.022,3.614   c3.794,2.56,7.322,5.491,10.682,8.593c3.252,3.001,6.372,6.149,9.45,9.327c3.071,3.171,6.441,6.124,8.157,10.227   c-3.708,1.45-7.008,3.427-10.037,6.022c-0.474,0.406-0.465,1.306,0,1.712c5.038,4.394,10.286,8.541,15.752,12.39   c2.818,1.985,5.692,3.891,8.617,5.717c1.395,0.871,3.767,2.994,5.282,1.21c0.639-0.753,0.835-1.969,1.142-2.875   c0.644-1.897,1.285-3.795,1.927-5.692c1.178-3.478,2.355-6.957,3.533-10.435c2.344-6.924,4.933-13.874,6.787-20.947   C87.229,54.113,87.132,53.892,86.969,53.738z"></path>
      </g>
    </svg>
  </g>
</svg>
